<?xml version="1.0" encoding="us-ascii" standalone="no"?><svg xmlns="http://www.w3.org/2000/svg" xmlns:xlink="http://www.w3.org/1999/xlink" contentStyleType="text/css" height="1748px" preserveAspectRatio="none" style="width:1451px;height:1748px;background:#FFFFFF;" version="1.1" viewBox="0 0 1451 1748" width="1451px" zoomAndPan="magnify"><defs/><g><text fill="#000000" font-family="sans-serif" font-size="14" font-weight="bold" lengthAdjust="spacing" textLength="318" x="562.5" y="29.5332">Pet Information REST API - Sequence Diagram</text><rect fill="#FFFFFF" height="1364.7344" style="stroke:#181818;stroke-width:1.0;" width="10" x="456" y="254.2344"/><rect fill="#FFFFFF" height="1271.3281" style="stroke:#181818;stroke-width:1.0;" width="10" x="671" y="300.9375"/><rect fill="#FFFFFF" height="499.7578" style="stroke:#181818;stroke-width:1.0;" width="10" x="846" y="418.9922"/><rect fill="#FFFFFF" height="107.4063" style="stroke:#181818;stroke-width:1.0;" width="10" x="1106" y="765.1563"/><rect fill="#FFFFFF" height="107.4063" style="stroke:#181818;stroke-width:1.0;" width="10" x="1106" y="1313.6172"/><rect fill="#FFFFFF" height="330.7031" style="stroke:#181818;stroke-width:1.0;" width="10" x="1208" y="1166.8594"/><rect fill="#FFFFFF" height="270" style="stroke:#181818;stroke-width:1.0;" width="10" x="1370" y="1197.2109"/><rect fill="none" height="939.8672" style="stroke:#000000;stroke-width:1.5;" width="1424" x="10" y="694.1016"/><rect fill="none" height="414.7578" style="stroke:#000000;stroke-width:1.5;" width="1404" x="20" y="1212.2109"/><line style="stroke:#181818;stroke-width:0.5;stroke-dasharray:5.0,5.0;" x1="51" x2="51" y1="124.8281" y2="1650.9688"/><line style="stroke:#181818;stroke-width:0.5;stroke-dasharray:5.0,5.0;" x1="461" x2="461" y1="124.8281" y2="1650.9688"/><line style="stroke:#181818;stroke-width:0.5;stroke-dasharray:5.0,5.0;" x1="676" x2="676" y1="124.8281" y2="1650.9688"/><line style="stroke:#181818;stroke-width:0.5;stroke-dasharray:5.0,5.0;" x1="851" x2="851" y1="124.8281" y2="1650.9688"/><line style="stroke:#181818;stroke-width:0.5;stroke-dasharray:5.0,5.0;" x1="1110.5" x2="1110.5" y1="124.8281" y2="1650.9688"/><line style="stroke:#181818;stroke-width:0.5;stroke-dasharray:5.0,5.0;" x1="1212.5" x2="1212.5" y1="124.8281" y2="1650.9688"/><line style="stroke:#181818;stroke-width:0.5;stroke-dasharray:5.0,5.0;" x1="1375" x2="1375" y1="124.8281" y2="1650.9688"/><text fill="#000000" font-family="sans-serif" font-size="14" lengthAdjust="spacing" textLength="36" x="30" y="121.752">Client</text><ellipse cx="51" cy="55.7188" fill="#E2E2F0" rx="8" ry="8" style="stroke:#181818;stroke-width:0.5;"/><path d="M51,63.7188 L51,90.7188 M38,71.7188 L64,71.7188 M51,90.7188 L38,105.7188 M51,90.7188 L64,105.7188 " fill="none" style="stroke:#181818;stroke-width:0.5;"/><text fill="#000000" font-family="sans-serif" font-size="14" lengthAdjust="spacing" textLength="36" x="30" y="1664.502">Client</text><ellipse cx="51" cy="1676.0781" fill="#E2E2F0" rx="8" ry="8" style="stroke:#181818;stroke-width:0.5;"/><path d="M51,1684.0781 L51,1711.0781 M38,1692.0781 L64,1692.0781 M51,1711.0781 L38,1726.0781 M51,1711.0781 L64,1726.0781 " fill="none" style="stroke:#181818;stroke-width:0.5;"/><rect fill="#E2E2F0" height="31.6094" rx="2.5" ry="2.5" style="stroke:#181818;stroke-width:0.5;" width="94" x="414" y="92.2188"/><text fill="#000000" font-family="sans-serif" font-size="14" lengthAdjust="spacing" textLength="80" x="421" y="113.752">API Gateway</text><rect fill="#E2E2F0" height="31.6094" rx="2.5" ry="2.5" style="stroke:#181818;stroke-width:0.5;" width="94" x="414" y="1649.9688"/><text fill="#000000" font-family="sans-serif" font-size="14" lengthAdjust="spacing" textLength="80" x="421" y="1671.502">API Gateway</text><rect fill="#E2E2F0" height="49.2188" rx="2.5" ry="2.5" style="stroke:#181818;stroke-width:0.5;" width="124" x="614" y="74.6094"/><text fill="#000000" font-family="sans-serif" font-size="14" lengthAdjust="spacing" textLength="110" x="621" y="96.1426">Lambda Function</text><text fill="#000000" font-family="sans-serif" font-size="14" lengthAdjust="spacing" textLength="109" x="621.5" y="113.752">(PetInfoFunction)</text><rect fill="#E2E2F0" height="49.2188" rx="2.5" ry="2.5" style="stroke:#181818;stroke-width:0.5;" width="124" x="614" y="1649.9688"/><text fill="#000000" font-family="sans-serif" font-size="14" lengthAdjust="spacing" textLength="110" x="621" y="1671.502">Lambda Function</text><text fill="#000000" font-family="sans-serif" font-size="14" lengthAdjust="spacing" textLength="109" x="621.5" y="1689.1113">(PetInfoFunction)</text><rect fill="#E2E2F0" height="49.2188" rx="2.5" ry="2.5" style="stroke:#181818;stroke-width:0.5;" width="76" x="813" y="74.6094"/><text fill="#000000" font-family="sans-serif" font-size="14" lengthAdjust="spacing" textLength="62" x="820" y="96.1426">Validation</text><text fill="#000000" font-family="sans-serif" font-size="14" lengthAdjust="spacing" textLength="46" x="828" y="113.752">Module</text><rect fill="#E2E2F0" height="49.2188" rx="2.5" ry="2.5" style="stroke:#181818;stroke-width:0.5;" width="76" x="813" y="1649.9688"/><text fill="#000000" font-family="sans-serif" font-size="14" lengthAdjust="spacing" textLength="62" x="820" y="1671.502">Validation</text><text fill="#000000" font-family="sans-serif" font-size="14" lengthAdjust="spacing" textLength="46" x="828" y="1689.1113">Module</text><rect fill="#E2E2F0" height="49.2188" rx="2.5" ry="2.5" style="stroke:#181818;stroke-width:0.5;" width="99" x="1061.5" y="74.6094"/><text fill="#000000" font-family="sans-serif" font-size="14" lengthAdjust="spacing" textLength="85" x="1068.5" y="96.1426">Error Handler</text><text fill="#000000" font-family="sans-serif" font-size="14" lengthAdjust="spacing" textLength="46" x="1088" y="113.752">Module</text><rect fill="#E2E2F0" height="49.2188" rx="2.5" ry="2.5" style="stroke:#181818;stroke-width:0.5;" width="99" x="1061.5" y="1649.9688"/><text fill="#000000" font-family="sans-serif" font-size="14" lengthAdjust="spacing" textLength="85" x="1068.5" y="1671.502">Error Handler</text><text fill="#000000" font-family="sans-serif" font-size="14" lengthAdjust="spacing" textLength="46" x="1088" y="1689.1113">Module</text><rect fill="#E2E2F0" height="49.2188" rx="2.5" ry="2.5" style="stroke:#181818;stroke-width:0.5;" width="85" x="1170.5" y="74.6094"/><text fill="#000000" font-family="sans-serif" font-size="14" lengthAdjust="spacing" textLength="71" x="1177.5" y="96.1426">DynamoDB</text><text fill="#000000" font-family="sans-serif" font-size="14" lengthAdjust="spacing" textLength="47" x="1189.5" y="113.752">Service</text><rect fill="#E2E2F0" height="49.2188" rx="2.5" ry="2.5" style="stroke:#181818;stroke-width:0.5;" width="85" x="1170.5" y="1649.9688"/><text fill="#000000" font-family="sans-serif" font-size="14" lengthAdjust="spacing" textLength="71" x="1177.5" y="1671.502">DynamoDB</text><text fill="#000000" font-family="sans-serif" font-size="14" lengthAdjust="spacing" textLength="47" x="1189.5" y="1689.1113">Service</text><text fill="#000000" font-family="sans-serif" font-size="14" lengthAdjust="spacing" textLength="71" x="1336.5" y="104.1426">DynamoDB</text><text fill="#000000" font-family="sans-serif" font-size="14" lengthAdjust="spacing" textLength="72" x="1336" y="121.752">(pets table)</text><path d="M1357,53.6094 C1357,43.6094 1375,43.6094 1375,43.6094 C1375,43.6094 1393,43.6094 1393,53.6094 L1393,79.6094 C1393,89.6094 1375,89.6094 1375,89.6094 C1375,89.6094 1357,89.6094 1357,79.6094 L1357,53.6094 " fill="#E2E2F0" style="stroke:#181818;stroke-width:1.5;"/><path d="M1357,53.6094 C1357,63.6094 1375,63.6094 1375,63.6094 C1375,63.6094 1393,63.6094 1393,53.6094 " fill="none" style="stroke:#181818;stroke-width:1.5;"/><text fill="#000000" font-family="sans-serif" font-size="14" lengthAdjust="spacing" textLength="71" x="1336.5" y="1664.502">DynamoDB</text><text fill="#000000" font-family="sans-serif" font-size="14" lengthAdjust="spacing" textLength="72" x="1336" y="1682.1113">(pets table)</text><path d="M1357,1695.1875 C1357,1685.1875 1375,1685.1875 1375,1685.1875 C1375,1685.1875 1393,1685.1875 1393,1695.1875 L1393,1721.1875 C1393,1731.1875 1375,1731.1875 1375,1731.1875 C1375,1731.1875 1357,1731.1875 1357,1721.1875 L1357,1695.1875 " fill="#E2E2F0" style="stroke:#181818;stroke-width:1.5;"/><path d="M1357,1695.1875 C1357,1705.1875 1375,1705.1875 1375,1705.1875 C1375,1705.1875 1393,1705.1875 1393,1695.1875 " fill="none" style="stroke:#181818;stroke-width:1.5;"/><rect fill="#FFFFFF" height="1364.7344" style="stroke:#181818;stroke-width:1.0;" width="10" x="456" y="254.2344"/><rect fill="#FFFFFF" height="1271.3281" style="stroke:#181818;stroke-width:1.0;" width="10" x="671" y="300.9375"/><rect fill="#FFFFFF" height="499.7578" style="stroke:#181818;stroke-width:1.0;" width="10" x="846" y="418.9922"/><rect fill="#FFFFFF" height="107.4063" style="stroke:#181818;stroke-width:1.0;" width="10" x="1106" y="765.1563"/><rect fill="#FFFFFF" height="107.4063" style="stroke:#181818;stroke-width:1.0;" width="10" x="1106" y="1313.6172"/><rect fill="#FFFFFF" height="330.7031" style="stroke:#181818;stroke-width:1.0;" width="10" x="1208" y="1166.8594"/><rect fill="#FFFFFF" height="270" style="stroke:#181818;stroke-width:1.0;" width="10" x="1370" y="1197.2109"/><path d="M23,139.8281 L23,181.8281 L1402,181.8281 L1402,149.8281 L1392,139.8281 L23,139.8281 " fill="#FEFFDD" style="stroke:#181818;stroke-width:0.5;"/><path d="M1392,139.8281 L1392,149.8281 L1402,149.8281 L1392,139.8281 " fill="#FEFFDD" style="stroke:#181818;stroke-width:0.5;"/><text fill="#000000" font-family="sans-serif" font-size="13" lengthAdjust="spacing" textLength="271" x="572.5" y="158.3232">Sequence diagram showing the interaction flow</text><text fill="#000000" font-family="sans-serif" font-size="13" lengthAdjust="spacing" textLength="160" x="572.5" y="174.6748">for POST /api/pets endpoint</text><rect fill="#EEEEEE" height="3" style="stroke:#EEEEEE;stroke-width:1.0;" width="1444" x="0" y="208.707"/><line style="stroke:#000000;stroke-width:1.0;" x1="0" x2="1444" y1="208.707" y2="208.707"/><line style="stroke:#000000;stroke-width:1.0;" x1="0" x2="1444" y1="211.707" y2="211.707"/><rect fill="#EEEEEE" height="24.3516" style="stroke:#000000;stroke-width:2.0;" width="142" x="651" y="197.5313"/><text fill="#000000" font-family="sans-serif" font-size="13" font-weight="bold" lengthAdjust="spacing" textLength="124" x="657" y="215.0264">Request Processing</text><polygon fill="#181818" points="444,250.2344,454,254.2344,444,258.2344,448,254.2344" style="stroke:#181818;stroke-width:1.0;"/><line style="stroke:#181818;stroke-width:1.0;" x1="51" x2="450" y1="254.2344" y2="254.2344"/><text fill="#000000" font-family="sans-serif" font-size="13" lengthAdjust="spacing" textLength="89" x="58" y="249.3779">POST /api/pets</text><polygon fill="#181818" points="659,296.9375,669,300.9375,659,304.9375,663,300.9375" style="stroke:#181818;stroke-width:1.0;"/><line style="stroke:#181818;stroke-width:1.0;" x1="466" x2="665" y1="300.9375" y2="300.9375"/><text fill="#000000" font-family="sans-serif" font-size="13" lengthAdjust="spacing" textLength="82" x="473" y="279.7295">Invoke handler</text><text fill="#000000" font-family="sans-serif" font-size="13" lengthAdjust="spacing" textLength="137" x="473" y="296.0811">with API Gateway event</text><line style="stroke:#181818;stroke-width:1.0;" x1="681" x2="723" y1="331.2891" y2="331.2891"/><line style="stroke:#181818;stroke-width:1.0;" x1="723" x2="723" y1="331.2891" y2="344.2891"/><line style="stroke:#181818;stroke-width:1.0;" x1="682" x2="723" y1="344.2891" y2="344.2891"/><polygon fill="#181818" points="692,340.2891,682,344.2891,692,348.2891,688,344.2891" style="stroke:#181818;stroke-width:1.0;"/><text fill="#000000" font-family="sans-serif" font-size="13" lengthAdjust="spacing" textLength="151" x="688" y="326.4326">Parse JSON request body</text><path d="M851,317.4375 L851,343.4375 L1060,343.4375 L1060,327.4375 L1050,317.4375 L851,317.4375 " fill="#FEFFDD" style="stroke:#181818;stroke-width:0.5;"/><path d="M1050,317.4375 L1050,327.4375 L1060,327.4375 L1050,317.4375 " fill="#FEFFDD" style="stroke:#181818;stroke-width:0.5;"/><text fill="#000000" font-family="sans-serif" font-size="13" lengthAdjust="spacing" textLength="188" x="857" y="335.9326">Extract pet data from event.body</text><rect fill="#EEEEEE" height="3" style="stroke:#EEEEEE;stroke-width:1.0;" width="1444" x="0" y="373.4648"/><line style="stroke:#000000;stroke-width:1.0;" x1="0" x2="1444" y1="373.4648" y2="373.4648"/><line style="stroke:#000000;stroke-width:1.0;" x1="0" x2="1444" y1="376.4648" y2="376.4648"/><rect fill="#EEEEEE" height="24.3516" style="stroke:#000000;stroke-width:2.0;" width="247" x="598.5" y="362.2891"/><text fill="#000000" font-family="sans-serif" font-size="13" font-weight="bold" lengthAdjust="spacing" textLength="229" x="604.5" y="379.7842">Input Validation and Transformation</text><polygon fill="#181818" points="834,414.9922,844,418.9922,834,422.9922,838,418.9922" style="stroke:#181818;stroke-width:1.0;"/><line style="stroke:#181818;stroke-width:1.0;" x1="681" x2="840" y1="418.9922" y2="418.9922"/><text fill="#000000" font-family="sans-serif" font-size="13" lengthAdjust="spacing" textLength="113" x="688" y="414.1357">Validate input fields</text><line style="stroke:#181818;stroke-width:1.0;" x1="856" x2="898" y1="449.3438" y2="449.3438"/><line style="stroke:#181818;stroke-width:1.0;" x1="898" x2="898" y1="449.3438" y2="462.3438"/><line style="stroke:#181818;stroke-width:1.0;" x1="857" x2="898" y1="462.3438" y2="462.3438"/><polygon fill="#181818" points="867,458.3438,857,462.3438,867,466.3438,863,462.3438" style="stroke:#181818;stroke-width:1.0;"/><text fill="#000000" font-family="sans-serif" font-size="13" lengthAdjust="spacing" textLength="202" x="863" y="444.4873">Check petName (non-empty string)</text><line style="stroke:#181818;stroke-width:1.0;" x1="856" x2="898" y1="492.6953" y2="492.6953"/><line style="stroke:#181818;stroke-width:1.0;" x1="898" x2="898" y1="492.6953" y2="505.6953"/><line style="stroke:#181818;stroke-width:1.0;" x1="857" x2="898" y1="505.6953" y2="505.6953"/><polygon fill="#181818" points="867,501.6953,857,505.6953,867,509.6953,863,505.6953" style="stroke:#181818;stroke-width:1.0;"/><text fill="#000000" font-family="sans-serif" font-size="13" lengthAdjust="spacing" textLength="236" x="863" y="487.8389">Check type (cat or dog, case-insensitive)</text><line style="stroke:#181818;stroke-width:1.0;" x1="856" x2="898" y1="536.0469" y2="536.0469"/><line style="stroke:#181818;stroke-width:1.0;" x1="898" x2="898" y1="536.0469" y2="549.0469"/><line style="stroke:#181818;stroke-width:1.0;" x1="857" x2="898" y1="549.0469" y2="549.0469"/><polygon fill="#181818" points="867,545.0469,857,549.0469,867,553.0469,863,549.0469" style="stroke:#181818;stroke-width:1.0;"/><text fill="#000000" font-family="sans-serif" font-size="13" lengthAdjust="spacing" textLength="178" x="863" y="531.1904">Check color (non-empty string)</text><line style="stroke:#181818;stroke-width:1.0;" x1="856" x2="898" y1="579.3984" y2="579.3984"/><line style="stroke:#181818;stroke-width:1.0;" x1="898" x2="898" y1="579.3984" y2="592.3984"/><line style="stroke:#181818;stroke-width:1.0;" x1="857" x2="898" y1="592.3984" y2="592.3984"/><polygon fill="#181818" points="867,588.3984,857,592.3984,867,596.3984,863,592.3984" style="stroke:#181818;stroke-width:1.0;"/><text fill="#000000" font-family="sans-serif" font-size="13" lengthAdjust="spacing" textLength="182" x="863" y="574.542">Check breed (non-empty string)</text><line style="stroke:#181818;stroke-width:1.0;" x1="856" x2="898" y1="622.75" y2="622.75"/><line style="stroke:#181818;stroke-width:1.0;" x1="898" x2="898" y1="622.75" y2="635.75"/><line style="stroke:#181818;stroke-width:1.0;" x1="857" x2="898" y1="635.75" y2="635.75"/><polygon fill="#181818" points="867,631.75,857,635.75,867,639.75,863,635.75" style="stroke:#181818;stroke-width:1.0;"/><text fill="#000000" font-family="sans-serif" font-size="13" lengthAdjust="spacing" textLength="189" x="863" y="617.8936">Check gender (non-empty string)</text><line style="stroke:#181818;stroke-width:1.0;" x1="856" x2="898" y1="666.1016" y2="666.1016"/><line style="stroke:#181818;stroke-width:1.0;" x1="898" x2="898" y1="666.1016" y2="679.1016"/><line style="stroke:#181818;stroke-width:1.0;" x1="857" x2="898" y1="679.1016" y2="679.1016"/><polygon fill="#181818" points="867,675.1016,857,679.1016,867,683.1016,863,679.1016" style="stroke:#181818;stroke-width:1.0;"/><text fill="#000000" font-family="sans-serif" font-size="13" lengthAdjust="spacing" textLength="223" x="863" y="661.2451">Check birthday (YYYY-MM-DD format)</text><path d="M10,694.1016 L71,694.1016 L71,702.4531 L61,712.4531 L10,712.4531 L10,694.1016 " fill="#EEEEEE" style="stroke:#000000;stroke-width:1.5;"/><rect fill="none" height="939.8672" style="stroke:#000000;stroke-width:1.5;" width="1424" x="10" y="694.1016"/><text fill="#000000" font-family="sans-serif" font-size="13" font-weight="bold" lengthAdjust="spacing" textLength="16" x="25" y="708.5967">alt</text><text fill="#000000" font-family="sans-serif" font-size="11" font-weight="bold" lengthAdjust="spacing" textLength="117" x="86" y="707.5205">[Input validation fails]</text><polygon fill="#181818" points="692,730.8047,682,734.8047,692,738.8047,688,734.8047" style="stroke:#181818;stroke-width:1.0;"/><line style="stroke:#181818;stroke-width:1.0;stroke-dasharray:2.0,2.0;" x1="686" x2="845" y1="734.8047" y2="734.8047"/><text fill="#000000" font-family="sans-serif" font-size="13" lengthAdjust="spacing" textLength="132" x="698" y="729.9482">Return validation errors</text><polygon fill="#181818" points="1094,761.1563,1104,765.1563,1094,769.1563,1098,765.1563" style="stroke:#181818;stroke-width:1.0;"/><line style="stroke:#181818;stroke-width:1.0;" x1="681" x2="1100" y1="765.1563" y2="765.1563"/><text fill="#000000" font-family="sans-serif" font-size="13" lengthAdjust="spacing" textLength="127" x="688" y="760.2998">Handle validation error</text><polygon fill="#181818" points="692,791.5078,682,795.5078,692,799.5078,688,795.5078" style="stroke:#181818;stroke-width:1.0;"/><line style="stroke:#181818;stroke-width:1.0;stroke-dasharray:2.0,2.0;" x1="686" x2="1105" y1="795.5078" y2="795.5078"/><text fill="#000000" font-family="sans-serif" font-size="13" lengthAdjust="spacing" textLength="171" x="698" y="790.6514">Formatted 400 error response</text><polygon fill="#181818" points="477,821.8594,467,825.8594,477,829.8594,473,825.8594" style="stroke:#181818;stroke-width:1.0;"/><line style="stroke:#181818;stroke-width:1.0;stroke-dasharray:2.0,2.0;" x1="471" x2="670" y1="825.8594" y2="825.8594"/><text fill="#000000" font-family="sans-serif" font-size="13" lengthAdjust="spacing" textLength="142" x="483" y="821.0029">Return 400 Bad Request</text><polygon fill="#181818" points="62,868.5625,52,872.5625,62,876.5625,58,872.5625" style="stroke:#181818;stroke-width:1.0;"/><line style="stroke:#181818;stroke-width:1.0;stroke-dasharray:2.0,2.0;" x1="56" x2="455" y1="872.5625" y2="872.5625"/><text fill="#000000" font-family="sans-serif" font-size="13" lengthAdjust="spacing" textLength="100" x="68" y="851.3545">400 Bad Request</text><text fill="#000000" font-family="sans-serif" font-size="13" lengthAdjust="spacing" textLength="106" x="68" y="867.7061">JSON error details</text><line style="stroke:#000000;stroke-width:1.0;stroke-dasharray:2.0,2.0;" x1="10" x2="1434" y1="881.5625" y2="881.5625"/><text fill="#000000" font-family="sans-serif" font-size="11" font-weight="bold" lengthAdjust="spacing" textLength="148" x="15" y="892.9814">[Input validation succeeds]</text><polygon fill="#181818" points="692,914.75,682,918.75,692,922.75,688,918.75" style="stroke:#181818;stroke-width:1.0;"/><line style="stroke:#181818;stroke-width:1.0;stroke-dasharray:2.0,2.0;" x1="686" x2="850" y1="918.75" y2="918.75"/><text fill="#000000" font-family="sans-serif" font-size="13" lengthAdjust="spacing" textLength="83" x="698" y="913.8936">Validated data</text><line style="stroke:#181818;stroke-width:1.0;" x1="681" x2="723" y1="949.1016" y2="949.1016"/><line style="stroke:#181818;stroke-width:1.0;" x1="723" x2="723" y1="949.1016" y2="962.1016"/><line style="stroke:#181818;stroke-width:1.0;" x1="682" x2="723" y1="962.1016" y2="962.1016"/><polygon fill="#181818" points="692,958.1016,682,962.1016,692,966.1016,688,962.1016" style="stroke:#181818;stroke-width:1.0;"/><text fill="#000000" font-family="sans-serif" font-size="13" lengthAdjust="spacing" textLength="127" x="688" y="944.2451">Generate petId (UUID)</text><line style="stroke:#181818;stroke-width:1.0;" x1="681" x2="723" y1="992.4531" y2="992.4531"/><line style="stroke:#181818;stroke-width:1.0;" x1="723" x2="723" y1="992.4531" y2="1005.4531"/><line style="stroke:#181818;stroke-width:1.0;" x1="682" x2="723" y1="1005.4531" y2="1005.4531"/><polygon fill="#181818" points="692,1001.4531,682,1005.4531,692,1009.4531,688,1005.4531" style="stroke:#181818;stroke-width:1.0;"/><text fill="#000000" font-family="sans-serif" font-size="13" lengthAdjust="spacing" textLength="145" x="688" y="987.5967">Set createdAt timestamp</text><line style="stroke:#181818;stroke-width:1.0;" x1="681" x2="723" y1="1035.8047" y2="1035.8047"/><line style="stroke:#181818;stroke-width:1.0;" x1="723" x2="723" y1="1035.8047" y2="1048.8047"/><line style="stroke:#181818;stroke-width:1.0;" x1="682" x2="723" y1="1048.8047" y2="1048.8047"/><polygon fill="#181818" points="692,1044.8047,682,1048.8047,692,1052.8047,688,1048.8047" style="stroke:#181818;stroke-width:1.0;"/><text fill="#000000" font-family="sans-serif" font-size="13" lengthAdjust="spacing" textLength="148" x="688" y="1030.9482">Set updatedAt timestamp</text><line style="stroke:#181818;stroke-width:1.0;" x1="681" x2="723" y1="1079.1563" y2="1079.1563"/><line style="stroke:#181818;stroke-width:1.0;" x1="723" x2="723" y1="1079.1563" y2="1092.1563"/><line style="stroke:#181818;stroke-width:1.0;" x1="682" x2="723" y1="1092.1563" y2="1092.1563"/><polygon fill="#181818" points="692,1088.1563,682,1092.1563,692,1096.1563,688,1092.1563" style="stroke:#181818;stroke-width:1.0;"/><text fill="#000000" font-family="sans-serif" font-size="13" lengthAdjust="spacing" textLength="122" x="688" y="1074.2998">Sanitize string inputs</text><rect fill="#EEEEEE" height="3" style="stroke:#EEEEEE;stroke-width:1.0;" width="1444" x="0" y="1121.332"/><line style="stroke:#000000;stroke-width:1.0;" x1="0" x2="1444" y1="1121.332" y2="1121.332"/><line style="stroke:#000000;stroke-width:1.0;" x1="0" x2="1444" y1="1124.332" y2="1124.332"/><rect fill="#EEEEEE" height="24.3516" style="stroke:#000000;stroke-width:2.0;" width="144" x="650" y="1110.1563"/><text fill="#000000" font-family="sans-serif" font-size="13" font-weight="bold" lengthAdjust="spacing" textLength="126" x="656" y="1127.6514">Database Operation</text><polygon fill="#181818" points="1196,1162.8594,1206,1166.8594,1196,1170.8594,1200,1166.8594" style="stroke:#181818;stroke-width:1.0;"/><line style="stroke:#181818;stroke-width:1.0;" x1="681" x2="1202" y1="1166.8594" y2="1166.8594"/><text fill="#000000" font-family="sans-serif" font-size="13" lengthAdjust="spacing" textLength="98" x="688" y="1162.0029">putItem(pet data)</text><polygon fill="#181818" points="1358,1193.2109,1368,1197.2109,1358,1201.2109,1362,1197.2109" style="stroke:#181818;stroke-width:1.0;"/><line style="stroke:#181818;stroke-width:1.0;" x1="1218" x2="1364" y1="1197.2109" y2="1197.2109"/><text fill="#000000" font-family="sans-serif" font-size="13" lengthAdjust="spacing" textLength="133" x="1225" y="1192.3545">Put item in DynamoDB</text><path d="M20,1212.2109 L81,1212.2109 L81,1220.5625 L71,1230.5625 L20,1230.5625 L20,1212.2109 " fill="#EEEEEE" style="stroke:#000000;stroke-width:1.5;"/><rect fill="none" height="414.7578" style="stroke:#000000;stroke-width:1.5;" width="1404" x="20" y="1212.2109"/><text fill="#000000" font-family="sans-serif" font-size="13" font-weight="bold" lengthAdjust="spacing" textLength="16" x="35" y="1226.7061">alt</text><text fill="#000000" font-family="sans-serif" font-size="11" font-weight="bold" lengthAdjust="spacing" textLength="140" x="96" y="1225.6299">[Database operation fails]</text><polygon fill="#181818" points="1229,1248.9141,1219,1252.9141,1229,1256.9141,1225,1252.9141" style="stroke:#181818;stroke-width:1.0;"/><line style="stroke:#181818;stroke-width:1.0;stroke-dasharray:2.0,2.0;" x1="1223" x2="1369" y1="1252.9141" y2="1252.9141"/><text fill="#000000" font-family="sans-serif" font-size="13" lengthAdjust="spacing" textLength="28" x="1235" y="1248.0576">Error</text><polygon fill="#181818" points="692,1279.2656,682,1283.2656,692,1287.2656,688,1283.2656" style="stroke:#181818;stroke-width:1.0;"/><line style="stroke:#181818;stroke-width:1.0;stroke-dasharray:2.0,2.0;" x1="686" x2="1207" y1="1283.2656" y2="1283.2656"/><text fill="#000000" font-family="sans-serif" font-size="13" lengthAdjust="spacing" textLength="85" x="698" y="1278.4092">Database error</text><polygon fill="#181818" points="1094,1309.6172,1104,1313.6172,1094,1317.6172,1098,1313.6172" style="stroke:#181818;stroke-width:1.0;"/><line style="stroke:#181818;stroke-width:1.0;" x1="681" x2="1100" y1="1313.6172" y2="1313.6172"/><text fill="#000000" font-family="sans-serif" font-size="13" lengthAdjust="spacing" textLength="127" x="688" y="1308.7607">Handle database error</text><polygon fill="#181818" points="692,1339.9688,682,1343.9688,692,1347.9688,688,1343.9688" style="stroke:#181818;stroke-width:1.0;"/><line style="stroke:#181818;stroke-width:1.0;stroke-dasharray:2.0,2.0;" x1="686" x2="1105" y1="1343.9688" y2="1343.9688"/><text fill="#000000" font-family="sans-serif" font-size="13" lengthAdjust="spacing" textLength="171" x="698" y="1339.1123">Formatted 500 error response</text><polygon fill="#181818" points="477,1370.3203,467,1374.3203,477,1378.3203,473,1374.3203" style="stroke:#181818;stroke-width:1.0;"/><line style="stroke:#181818;stroke-width:1.0;stroke-dasharray:2.0,2.0;" x1="471" x2="670" y1="1374.3203" y2="1374.3203"/><text fill="#000000" font-family="sans-serif" font-size="13" lengthAdjust="spacing" textLength="181" x="483" y="1369.4639">Return 500 Internal Server Error</text><polygon fill="#181818" points="62,1417.0234,52,1421.0234,62,1425.0234,58,1421.0234" style="stroke:#181818;stroke-width:1.0;"/><line style="stroke:#181818;stroke-width:1.0;stroke-dasharray:2.0,2.0;" x1="56" x2="455" y1="1421.0234" y2="1421.0234"/><text fill="#000000" font-family="sans-serif" font-size="13" lengthAdjust="spacing" textLength="139" x="68" y="1399.8154">500 Internal Server Error</text><text fill="#000000" font-family="sans-serif" font-size="13" lengthAdjust="spacing" textLength="121" x="68" y="1416.167">JSON error message</text><line style="stroke:#000000;stroke-width:1.0;stroke-dasharray:2.0,2.0;" x1="20" x2="1424" y1="1430.0234" y2="1430.0234"/><text fill="#000000" font-family="sans-serif" font-size="11" font-weight="bold" lengthAdjust="spacing" textLength="171" x="25" y="1441.4424">[Database operation succeeds]</text><polygon fill="#181818" points="1229,1463.2109,1219,1467.2109,1229,1471.2109,1225,1467.2109" style="stroke:#181818;stroke-width:1.0;"/><line style="stroke:#181818;stroke-width:1.0;stroke-dasharray:2.0,2.0;" x1="1223" x2="1374" y1="1467.2109" y2="1467.2109"/><text fill="#000000" font-family="sans-serif" font-size="13" lengthAdjust="spacing" textLength="51" x="1235" y="1462.3545">Success</text><polygon fill="#181818" points="692,1493.5625,682,1497.5625,692,1501.5625,688,1497.5625" style="stroke:#181818;stroke-width:1.0;"/><line style="stroke:#181818;stroke-width:1.0;stroke-dasharray:2.0,2.0;" x1="686" x2="1212" y1="1497.5625" y2="1497.5625"/><text fill="#000000" font-family="sans-serif" font-size="13" lengthAdjust="spacing" textLength="108" x="698" y="1492.7061">Success response</text><rect fill="#EEEEEE" height="3" style="stroke:#EEEEEE;stroke-width:1.0;" width="1444" x="0" y="1526.7383"/><line style="stroke:#000000;stroke-width:1.0;" x1="0" x2="1444" y1="1526.7383" y2="1526.7383"/><line style="stroke:#000000;stroke-width:1.0;" x1="0" x2="1444" y1="1529.7383" y2="1529.7383"/><rect fill="#EEEEEE" height="24.3516" style="stroke:#000000;stroke-width:2.0;" width="140" x="652" y="1515.5625"/><text fill="#000000" font-family="sans-serif" font-size="13" font-weight="bold" lengthAdjust="spacing" textLength="122" x="658" y="1533.0576">Response Handling</text><polygon fill="#181818" points="477,1568.2656,467,1572.2656,477,1576.2656,473,1572.2656" style="stroke:#181818;stroke-width:1.0;"/><line style="stroke:#181818;stroke-width:1.0;stroke-dasharray:2.0,2.0;" x1="471" x2="675" y1="1572.2656" y2="1572.2656"/><text fill="#000000" font-family="sans-serif" font-size="13" lengthAdjust="spacing" textLength="171" x="483" y="1567.4092">Return 201 Created with petId</text><polygon fill="#181818" points="62,1614.9688,52,1618.9688,62,1622.9688,58,1618.9688" style="stroke:#181818;stroke-width:1.0;"/><line style="stroke:#181818;stroke-width:1.0;stroke-dasharray:2.0,2.0;" x1="56" x2="460" y1="1618.9688" y2="1618.9688"/><text fill="#000000" font-family="sans-serif" font-size="13" lengthAdjust="spacing" textLength="70" x="68" y="1597.7607">201 Created</text><text fill="#000000" font-family="sans-serif" font-size="13" lengthAdjust="spacing" textLength="381" x="68" y="1614.1123">{"petId": "uuid", "message": "Pet information saved successfully."}</text><!--SRC=[dLPDRnCn4BtlhnZbb4WDBGWkaOhKDWM2A8qQG4BgnLrF4ejTUx6zAG7ntnb_x8VJf0LosdZdpOpVcsUl5RP0cAE5cLmgNJ8hb8IRoyKdE9lFO0mB_5wZp16cWgqqAxECvLPfk2W4IfjLJ5kHYuf92mE7UCiithFj09Xn6TA03woyumpUr39tTMxba2gxmitAoED2M0hzmWh1MK1TALuNw4FZij9fzANMrECx9dc1EW7uD_55Yfbk9IlLzFnMBb1lH1xYf-VnNqPbs1qps8ySLcWDq7g1enYUPL9P1BN1XgGZjmeTapmm2MQjxeLSWLqZ26bHCyy1B0jrJ_4a1yolIOXZLebZNmWbhnI5PlG0haoMdPx2ZKjiBCoroj4Ob_BqDCj2SHY_TZfCTb8v5SM6jF8YPLxhrv7u2St2Hdr3M3VytGkxXfwwW1idVfiZ2fP5VNkPvamJO-yNrnz1npRl5Dy6ZhHOhUq4BdzOjtMWli2H34kjob3YcGzscvp9ghRGJG5GR_19CscwiNMxxbfeHsFIF3gQNPQbm8BtAEY6A6iVTp9Sh37_vZhyo4g4eLHoZ6Lbjs2i9i97Jm3jjY9KpYnG05Uh8yXfaiP26fH6K1luL8PS5VJcdmlVQKJ-xx0L3HZ-JpcXxPhJW0o_qczyTJMUJY48DAAJex1HnqsduvA9mj2u0_HIzoRe1csjPH-1pi81qgdTz_KaEly1o6DQsPEZmBtfBoGzlF4xiCJaovEJa8h6sLIAz4lwQCmMctRHvumt3lMXtceK5-mvsOsvbTuieGP7sxB3SN_ZM9317h1gwZmdvHyZjZ45zwRRhT7pH4fq0t-BaauiYYHJp6Z4Fd-UJKS7OXVax5oZAtPcmOgIDihAwf7ekk9_6yqa6UWdnWaD5ZUXQpetfisfVLsvTfjZ8itL7l8J8F3COZbi3gDHEZFTTU3NsxyX2vrt98CWFBK1pJMnco50dHdQvbJRN6U7aDzBrklliftZdVezIjgqc0G_OHQ-7tNOBdzfcLVxBVE8RHnYvYv4oGfm6wJSwRvtJNGGaTY91icmLLV-aANSEs-hFVeanjelqSA56BElJ1o6mz95x4EgaYJ93CP1luc886Vp4V04qozEdiD5C2RuIzwRUL_HUCKV4g2Nw5R-6lWqWmaCwbhmmH4C8lLkoNriYjx7fc4Rgcx2nfTrKMoV3NxlQy5zgNXf97SVGDaV]--></g></svg>